<svg width="512" height="512" viewBox="0 0 512 512" fill="none" xmlns="http://www.w3.org/2000/svg">
<g clip-path="url(#clip0_1237_1541)">
<path d="M441 30H435.865C434.344 13.204 420.185 0 403 0C385.815 0 371.656 13.204 370.135 30H337.864C336.344 13.204 322.185 0 305 0C287.815 0 273.656 13.204 272.135 30H239.864C238.344 13.204 224.185 0 207 0C189.815 0 175.656 13.204 174.135 30H141.864C140.344 13.204 126.185 0 109 0C91.815 0 77.656 13.204 76.135 30H71C31.851 30 0 61.851 0 101V441C0 480.149 31.851 512 71 512H441C480.149 512 512 480.149 512 441V101C512 61.851 480.149 30 441 30ZM392 33C392 26.935 396.935 22 403 22C409.065 22 414 26.935 414 33V49C414 55.065 409.065 60 403 60C396.935 60 392 55.065 392 49V33ZM294 33C294 26.935 298.935 22 305 22C311.065 22 316 26.935 316 33V49C316 55.065 311.065 60 305 60C298.935 60 294 55.065 294 49V33ZM196 33C196 26.935 200.935 22 207 22C213.065 22 218 26.935 218 33V49C218 55.065 213.065 60 207 60C200.935 60 196 55.065 196 49V33ZM98 33C98 26.935 102.935 22 109 22C115.065 22 120 26.935 120 33V49C120 55.065 115.065 60 109 60C102.935 60 98 55.065 98 49V33ZM71 52H76.135C77.656 68.796 91.815 82 109 82C126.185 82 140.344 68.796 141.865 52H174.136C175.657 68.796 189.815 82 207.001 82C224.187 82 238.345 68.796 239.866 52H272.137C273.658 68.796 287.816 82 305.002 82C322.188 82 336.346 68.796 337.867 52H370.138C371.659 68.796 385.817 82 403.003 82C420.189 82 434.347 68.796 435.868 52H441C468.019 52 490 73.981 490 101V104H22V101C22 73.981 43.981 52 71 52ZM22 441V126H163.333V203H185.333V126H326.666V490H185.333V457H163.333V490H71C43.981 490 22 468.019 22 441ZM441 490H348.667V126H490V441C490 468.019 468.019 490 441 490Z" fill="black"/>
<path d="M130.333 148H55C48.925 148 44 152.925 44 159C44 165.075 48.925 170 55 170H130.333C136.408 170 141.333 165.075 141.333 159C141.333 152.925 136.409 148 130.333 148Z" fill="black"/>
<path d="M218.333 170H293.666C299.741 170 304.666 165.075 304.666 159C304.666 152.925 299.741 148 293.666 148H218.333C212.258 148 207.333 152.925 207.333 159C207.333 165.075 212.258 170 218.333 170Z" fill="black"/>
<path d="M185.333 352H163.333V413H185.333V352Z" fill="black"/>
<path d="M185.333 247H163.333V308H185.333V247Z" fill="black"/>
<path d="M457 148H381.667C375.592 148 370.667 152.925 370.667 159C370.667 165.075 375.592 170 381.667 170H457C463.075 170 468 165.075 468 159C468 152.925 463.075 148 457 148Z" fill="black"/>
<path d="M283 402H55C48.925 402 44 406.925 44 413V457C44 463.075 48.925 468 55 468H283C289.075 468 294 463.075 294 457V413C294 406.925 289.075 402 283 402ZM272 446H66V424H272V446Z" fill="#0061AF"/>
<path d="M457 402H381C374.925 402 370 406.925 370 413V457C370 463.075 374.925 468 381 468H457C463.075 468 468 463.075 468 457V413C468 406.925 463.075 402 457 402ZM446 446H392V424H446V446Z" fill="#0061AF"/>
<path d="M55 258H229C235.075 258 240 253.075 240 247V203C240 196.925 235.075 192 229 192H55C48.925 192 44 196.925 44 203V247C44 253.075 48.925 258 55 258ZM66 214H218V236H66V214Z" fill="#0061AF"/>
<path d="M283 297H131C124.925 297 120 301.925 120 308V352C120 358.075 124.925 363 131 363H283C289.075 363 294 358.075 294 352V308C294 301.925 289.075 297 283 297ZM272 341H142V319H272V341Z" fill="#0061AF"/>
</g>
<defs>
<clipPath id="clip0_1237_1541">
<rect width="512" height="512" fill="white"/>
</clipPath>
</defs>
</svg>
