<svg width="512" height="512" viewBox="0 0 512 512" fill="none" xmlns="http://www.w3.org/2000/svg">
<path d="M162.345 171.85C161.018 171.85 159.668 171.608 158.357 171.098C108.203 151.572 106.233 119.271 109.522 101.755C114.053 77.63 133.641 52.088 163.264 31.68C192.486 11.546 226.287 0 255.999 0C318.897 0 392.797 51.238 402.433 101.528C405.768 118.936 403.993 151.072 354.629 170.708C348.99 172.953 342.589 170.198 340.343 164.553C338.097 158.908 340.853 152.511 346.498 150.266C372.931 139.751 384.48 124.746 380.825 105.668C373.185 65.789 307.855 22 255.999 22C203.991 22 138.647 65.866 131.145 105.815C127.536 125.032 139.377 140.099 166.339 150.596C172 152.8 174.803 159.176 172.599 164.837C170.905 169.188 166.749 171.85 162.345 171.85Z" fill="#0061AF"/>
<path d="M110.699 437.372C94.6496 437.372 84.3016 426.802 76.1076 415.275C72.5876 410.323 73.7486 403.456 78.6996 399.936C83.6506 396.417 90.5186 397.576 94.0386 402.528C103.376 415.663 109.019 419.99 127.521 409.732C140.712 402.417 141.555 397.199 141.832 395.485C142.67 390.298 139.595 382.678 136.147 375.215C133.599 369.7 136.004 363.164 141.519 360.615C147.034 358.068 153.57 360.471 156.119 365.987C165.557 386.416 172.734 409.815 138.19 428.97C127.449 434.927 118.414 437.372 110.699 437.372Z" fill="#0061AF"/>
<path d="M401.204 437.327C393.489 437.327 384.484 434.891 373.809 428.971C339.097 409.721 346.168 386.764 356.386 364.899C358.958 359.394 365.505 357.018 371.009 359.591C376.513 362.163 378.889 368.71 376.318 374.214C372.094 383.251 369.427 390.293 370.138 395.29C370.385 397.033 371.139 402.335 384.479 409.733C403.093 420.055 408.848 415.52 418.433 401.859C421.922 396.887 428.785 395.684 433.755 399.172C438.729 402.661 439.932 409.522 436.443 414.495C428.093 426.395 417.545 437.327 401.204 437.327Z" fill="#0061AF"/>
<path d="M278.5 75.332H233.5C227.425 75.332 222.5 70.407 222.5 64.332C222.5 58.257 227.425 53.332 233.5 53.332H278.5C284.575 53.332 289.5 58.257 289.5 64.332C289.5 70.407 284.576 75.332 278.5 75.332Z" fill="#0061AF"/>
<path d="M406.489 374.108L312 325.232V295.452C313.583 294.388 315.143 293.277 316.677 292.118C331.84 280.663 343.629 264.945 350.388 247.332C366.431 243.223 378.106 228.745 378.106 211.501C378.106 196.997 369.63 184.119 357.001 178.096V107.664C357.001 101.589 352.076 96.6641 346.001 96.6641H166C159.925 96.6641 155 101.589 155 107.664V137.664V178.096C142.371 184.119 133.895 196.997 133.895 211.5C133.895 228.744 145.569 243.222 161.612 247.332C168.371 264.945 180.16 280.663 195.323 292.118C196.857 293.277 198.417 294.388 200 295.452V325.233L105.511 374.109C72.466 391.201 55 417.79 55 451V501C55 507.075 59.925 512 66 512H446C452.075 512 457 507.075 457 501V451C457 417.789 439.534 391.2 406.489 374.108ZM210.71 344.46L238.792 360.673L211.717 391.027L194.14 353.031L210.71 344.46ZM301.291 344.46L317.861 353.031L300.284 391.027L273.209 360.673L301.291 344.46ZM177 118.664H335V134.956C324.641 152.774 292.052 165.501 256 165.501C219.948 165.501 187.36 152.774 177 134.956V118.664ZM180.377 234.281C179.016 229.802 174.969 226.674 170.291 226.487C162.353 226.17 155.895 219.446 155.895 211.501C155.895 204.325 161.02 198.13 168.08 196.771C173.258 195.774 177 191.243 177 185.969V165.896C196.187 179.372 224.578 187.503 256 187.503C287.422 187.503 315.813 179.372 335 165.897V185.97C335 191.243 338.742 195.775 343.921 196.772C350.982 198.131 356.106 204.327 356.106 211.503C356.106 219.449 349.647 226.171 341.709 226.489C337.03 226.676 332.983 229.804 331.623 234.284C321.571 267.382 290.474 290.5 256 290.5C221.527 290.5 190.43 267.382 180.377 234.281ZM256 312.5C267.75 312.5 279.198 310.497 290 306.608V325.575L256 345.205L222 325.575V306.608C232.803 310.497 244.25 312.5 256 312.5ZM77 451C77 426.2 89.994 406.903 115.619 393.648L174.582 363.148L198.787 415.474C200.343 418.838 203.488 421.191 207.153 421.736C207.693 421.817 208.234 421.856 208.771 421.856C211.88 421.856 214.875 420.536 216.979 418.178L245 386.764V490H150.221V463.356C150.221 457.281 145.296 452.356 139.221 452.356C133.146 452.356 128.221 457.281 128.221 463.356V490H77V451ZM435 490H383.78V463.356C383.78 457.281 378.855 452.356 372.78 452.356C366.705 452.356 361.78 457.281 361.78 463.356V490H267V386.765L295.021 418.179C297.125 420.537 300.12 421.857 303.229 421.857C303.766 421.857 304.307 421.818 304.847 421.737C308.512 421.193 311.658 418.839 313.213 415.475L337.419 363.149L396.381 393.648C422.007 406.903 435 426.199 435 451V490Z" fill="black"/>
</svg>
