<svg width="512" height="512" viewBox="0 0 512 512" fill="none" xmlns="http://www.w3.org/2000/svg">
<g clip-path="url(#clip0_1237_1451)">
<path d="M136.842 249.945H13.1328V227.945H136.842C167.009 227.945 191.552 203.402 191.552 173.235C191.552 156.414 183.61 140.233 170.307 129.951L183.761 112.545C202.415 126.963 213.552 149.651 213.552 173.235C213.552 215.533 179.14 249.945 136.842 249.945Z" fill="#0061AF"/>
<path d="M492.911 323.333H423.345C400.783 323.333 379.468 313.468 364.866 296.268L358.804 289.126C354.17 283.668 348.596 279.232 342.239 275.943L316.055 262.395C290.483 249.163 274.597 223.058 274.597 194.265C274.597 175.021 281.754 156.616 294.75 142.44C307.662 128.356 325.214 119.634 344.173 117.883L346.196 139.79C332.69 141.038 320.178 147.258 310.966 157.307C301.699 167.415 296.596 180.54 296.596 194.265C296.596 214.8 307.926 233.419 326.164 242.856L352.347 256.404C361.262 261.016 369.076 267.236 375.574 274.889L381.636 282.031C392.051 294.299 407.252 301.334 423.344 301.334H492.91V323.333H492.911Z" fill="#0061AF"/>
<path d="M419.965 435.281L397.415 400.546C387.934 385.94 368.676 381.419 353.577 390.254C335.609 400.766 312.867 400.007 295.639 388.32L282.878 379.663L295.229 361.457L307.99 370.114C318.241 377.069 331.775 377.519 342.468 371.264C367.734 356.482 399.977 364.082 415.869 388.567L438.417 423.299L419.965 435.281Z" fill="#0061AF"/>
<path d="M86.168 421.293H64.168V410.314C64.168 375.73 88.816 345.878 122.777 339.335C129.352 338.068 135.512 335.547 141.089 331.843C142.992 330.579 144.962 329.366 146.943 328.238L157.832 347.354C156.286 348.234 154.749 349.182 153.263 350.168C145.247 355.493 136.39 359.117 126.94 360.938C103.315 365.49 86.169 386.255 86.169 410.314L86.168 421.293Z" fill="#0061AF"/>
<path d="M114.317 120.655C93.9968 120.655 77.4658 104.124 77.4658 83.8039C77.4658 63.4839 93.9968 46.9519 114.317 46.9519C134.637 46.9519 151.168 63.4839 151.168 83.8039C151.168 104.124 134.637 120.655 114.317 120.655ZM114.317 68.9519C106.128 68.9519 99.4658 75.6149 99.4658 83.8039C99.4658 91.9929 106.128 98.6549 114.317 98.6549C122.506 98.6549 129.168 91.9929 129.168 83.8039C129.168 75.6149 122.506 68.9519 114.317 68.9519Z" fill="#0061AF"/>
<path d="M418.784 165.406C398.464 165.406 381.933 148.874 381.933 128.554C381.933 108.234 398.464 91.7029 418.784 91.7029C439.104 91.7029 455.635 108.234 455.635 128.554C455.635 148.874 439.104 165.406 418.784 165.406ZM418.784 113.704C410.595 113.704 403.933 120.366 403.933 128.555C403.933 136.744 410.595 143.407 418.784 143.407C426.973 143.407 433.635 136.744 433.635 128.555C433.635 120.366 426.973 113.704 418.784 113.704Z" fill="#0061AF"/>
<path d="M225.566 370.709C205.246 370.709 188.714 354.178 188.714 333.858C188.714 313.538 205.246 297.007 225.566 297.007C245.886 297.007 262.417 313.538 262.417 333.858C262.417 354.178 245.886 370.709 225.566 370.709ZM225.566 319.007C217.377 319.007 210.714 325.669 210.714 333.858C210.714 342.047 217.377 348.709 225.566 348.709C233.755 348.709 240.417 342.047 240.417 333.858C240.417 325.669 233.755 319.007 225.566 319.007Z" fill="#0061AF"/>
<path d="M494.855 163.752C500.338 151.92 503.009 138.884 502.535 125.574C501.778 104.321 493.08 84.334 478.042 69.297C462.214 53.469 441.169 44.752 418.784 44.752C413.368 44.752 408.033 45.273 402.828 46.271C359.672 15.985 309.01 0 256 0C224.479 0 193.776 5.648 164.642 16.789C150.205 5.901 132.717 0 114.317 0C91.932 0 70.887 8.717 55.059 24.545C40.021 39.583 31.323 59.569 30.566 80.823C30.075 94.629 32.984 108.132 38.889 120.311C13.433 160.956 0 207.741 0 256C0 324.38 26.628 388.667 74.981 437.019C123.333 485.372 187.62 512 256 512C324.38 512 388.667 485.372 437.019 437.019C485.372 388.667 512 324.38 512 256C512 224.166 506.223 193.156 494.855 163.752ZM418.784 66.751C435.292 66.751 450.812 73.18 462.485 84.853C485.306 107.674 486.623 144.652 465.482 169.039L418.784 222.904L372.086 169.039C350.945 144.653 352.261 107.675 375.082 84.853C386.755 73.18 402.276 66.751 418.784 66.751ZM70.616 40.102C82.289 28.429 97.809 22 114.317 22C130.825 22 146.346 28.429 158.019 40.102C180.84 62.923 182.156 99.902 161.015 124.288L114.317 178.153L67.619 124.288C46.478 99.901 47.794 62.923 70.616 40.102ZM421.463 421.463C377.266 465.66 318.503 490 256 490C193.497 490 134.734 465.66 90.537 421.463C46.34 377.266 22 318.503 22 256C22 215.191 32.507 175.543 52.495 140.427L106.005 202.15C108.094 204.56 111.127 205.944 114.317 205.944C117.507 205.944 120.539 204.56 122.629 202.15L177.638 138.698C191.569 122.629 198.824 102.075 198.068 80.822C197.461 63.777 191.736 47.554 181.739 34.037C205.583 26.053 230.493 22 256 22C299.226 22 340.738 33.63 377.193 55.786C370.813 59.446 364.867 63.956 359.526 69.296C344.488 84.334 335.79 104.32 335.034 125.573C334.278 146.826 341.533 167.38 355.464 183.449L410.473 246.901C412.562 249.311 415.595 250.695 418.785 250.695C421.975 250.695 425.007 249.311 427.097 246.901L479.489 186.468C486.459 208.874 490 232.181 490 256C490 318.503 465.66 377.266 421.463 421.463Z" fill="black"/>
<path d="M284.824 274.6C268.996 258.772 247.951 250.055 225.566 250.055C203.181 250.055 182.136 258.772 166.308 274.6C151.27 289.638 142.572 309.624 141.816 330.877C141.06 352.13 148.315 372.684 162.246 388.753L217.255 452.205C219.344 454.615 222.377 455.999 225.567 455.999C228.757 455.999 231.789 454.615 233.879 452.205L288.888 388.753C302.819 372.684 310.074 352.13 309.318 330.877C308.56 309.624 299.861 289.638 284.824 274.6ZM272.264 374.342L225.566 428.207L178.868 374.342C157.727 349.956 159.043 312.977 181.864 290.156C193.537 278.483 209.057 272.054 225.566 272.054C242.075 272.054 257.594 278.483 269.267 290.156C292.088 312.978 293.405 349.956 272.264 374.342Z" fill="black"/>
</g>
<defs>
<clipPath id="clip0_1237_1451">
<rect width="512" height="512" fill="white"/>
</clipPath>
</defs>
</svg>
