<svg width="512" height="512" viewBox="0 0 512 512" fill="none" xmlns="http://www.w3.org/2000/svg">
<g clip-path="url(#clip0_1237_1492)">
<path d="M504.576 198.132L455.814 181.373C456.013 179.78 456.127 178.161 456.127 176.515V141.258C456.127 135.183 451.202 130.258 445.127 130.258H389.127C383.052 130.258 378.127 135.183 378.127 141.258V154.672L339.802 141.5L340.331 137.26C346.045 91.4291 328.945 45.6391 294.587 14.7731C272.661 -4.92289 239.593 -4.92389 217.668 14.7731C183.31 45.6391 166.21 91.4291 171.924 137.26L172.442 141.416L133.873 154.672V141.258C133.873 135.183 128.948 130.258 122.873 130.258H66.873C60.798 130.258 55.873 135.183 55.873 141.258V176.515C55.873 178.161 55.987 179.78 56.186 181.373L7.425 198.132C2.983 199.659 0 203.837 0 208.535V264.554C0 270.629 4.925 275.554 11 275.554H189.167L205.886 409.648L158.429 443.658C155.547 445.723 153.837 449.053 153.837 452.599V501.002C153.837 504.629 155.625 508.023 158.617 510.074C161.615 512.131 165.435 512.565 168.803 511.262L219.838 491.538C227.337 503.878 240.902 512.002 256.129 512.002C271.355 512.002 284.92 503.878 292.419 491.538L343.454 511.262C346.822 512.566 350.642 512.131 353.64 510.074C356.632 508.023 358.42 504.629 358.42 501.002V452.599C358.42 449.053 356.71 445.724 353.828 443.658L306.371 409.648L310.221 378.767L288.39 376.045L276.415 472.089C275.142 482.301 266.421 490.002 256.13 490.002C245.839 490.002 237.118 482.301 235.844 472.089L193.758 134.539C188.934 95.8501 203.369 57.1961 232.373 31.1401C245.917 18.9721 266.343 18.9731 279.888 31.1401C308.891 57.1971 323.327 95.8501 318.503 134.54L307.609 221.911L329.44 224.633L337.024 163.809L378.167 177.95C378.924 198.793 396.106 215.518 417.131 215.518C429.092 215.518 439.807 210.101 446.967 201.597L490 216.386V253.554H403.877V275.554H501C507.075 275.554 512 270.629 512 264.554V208.535C512 203.837 509.018 199.659 504.576 198.132ZM77.873 152.258H111.873V176.515C111.873 185.889 104.247 193.515 94.873 193.515C85.499 193.515 77.873 185.889 77.873 176.515V152.258ZM22 253.554V216.386L65.037 201.594C72.197 210.098 82.912 215.515 94.873 215.515C115.898 215.515 133.079 198.79 133.837 177.947L175.224 163.723L186.424 253.554H22ZM303.27 434.493L336.417 458.248V484.956L298.791 470.414L303.27 434.493ZM213.463 470.415L175.837 484.957V458.249L208.984 434.494L213.463 470.415ZM434.127 176.515C434.127 185.889 426.501 193.515 417.127 193.515C407.753 193.515 400.127 185.889 400.127 176.515V152.258H434.127V176.515Z" fill="black"/>
<path d="M308.733 293.915C304.438 289.619 297.473 289.62 293.177 293.915C288.881 298.21 288.882 305.175 293.177 309.471L313.498 329.791C315.646 331.939 318.461 333.013 321.276 333.013C324.091 333.013 326.906 331.939 329.054 329.791L363.655 295.19C367.95 290.894 367.95 283.929 363.655 279.633C359.359 275.337 352.394 275.337 348.098 279.633L321.275 306.456L308.733 293.915Z" fill="#0061AF"/>
<path d="M408.191 241.105L332.73 208.933C329.974 207.758 326.858 207.758 324.102 208.933L248.641 241.105C244.586 242.834 241.955 246.816 241.955 251.224V296.862C241.955 346.657 277.437 389.67 326.325 399.135C327.707 399.403 329.126 399.403 330.508 399.135C379.395 389.669 414.877 346.657 414.877 296.862V251.224C414.877 246.816 412.246 242.833 408.191 241.105ZM392.877 296.862C392.877 335.427 365.894 368.834 328.416 377.104C290.938 368.834 263.955 335.427 263.955 296.862V258.492L328.416 231.01L392.877 258.492V296.862Z" fill="#0061AF"/>
<path d="M274.135 97.068C276.302 99.392 279.238 100.568 282.183 100.567C284.869 100.567 287.562 99.589 289.682 97.613C294.125 93.47 294.37 86.51 290.227 82.066C280.956 72.122 268.847 66.646 256.128 66.646C243.41 66.646 231.298 72.123 222.028 82.066C217.885 86.509 218.129 93.47 222.573 97.613C227.016 101.755 233.977 101.511 238.12 97.068C243.183 91.637 249.579 88.646 256.128 88.646C262.677 88.646 269.072 91.637 274.135 97.068Z" fill="#0061AF"/>
</g>
<defs>
<clipPath id="clip0_1237_1492">
<rect width="512.001" height="512.001" fill="white"/>
</clipPath>
</defs>
</svg>
