<svg width="260" height="56" viewBox="0 0 260 56" fill="none" xmlns="http://www.w3.org/2000/svg">
<g clip-path="url(#clip0_889_2995)">
<path fill-rule="evenodd" clip-rule="evenodd" d="M218.338 56H212.959L216.971 35.9741H225.814C229.369 35.9741 231.101 36.4272 232.469 37.3333C234.201 38.5113 234.839 40.3236 234.839 41.7735C234.839 43.4045 233.927 45.0356 232.651 46.0324C231.557 46.8479 230.463 47.1198 229.46 47.301L232.469 56H226.908L224.355 48.0259H219.888L218.338 56ZM221.529 39.5081L220.526 44.5825H224.081C226.087 44.5825 226.816 44.4919 227.819 44.1295C228.731 43.767 229.369 42.8609 229.369 41.8641C229.369 39.5081 226.634 39.5081 225.267 39.5081H221.529Z" fill="#2E9BD6"/>
<path d="M260 0L257.174 3.80582L253.71 8.60841L240.856 26.0065C237.574 30.4466 232.468 32.9838 226.999 32.9838H209.495C209.951 32.8026 210.316 32.6214 210.771 32.5307C213.051 31.6246 214.418 30.7184 215.785 29.6311C217.518 28.1812 218.976 26.5502 220.344 24.7379L233.38 6.97735C236.571 2.53722 241.767 0 247.237 0H260Z" fill="#62BBE5"/>
<path d="M201.746 9.96773C200.379 11.78 199.832 12.958 197.735 12.958L188.163 12.5049C188.345 12.4143 188.527 12.4143 188.71 12.3237C189.621 11.9613 190.259 11.6894 190.806 11.2363C191.536 10.6926 192.174 10.0583 192.812 9.42404L198.555 2.53731C200.014 0.815626 202.111 -0.090523 204.39 9.18997e-05H211.956C207.489 1.903 203.752 7.3399 201.746 9.96773Z" fill="#62BBE5"/>
<path d="M164.187 28.7249L7.65778 28.9061C4.64937 29.178 1.91445 30.6278 0 32.8932C0 32.8932 0 32.9838 0.0911641 32.9838H192.265H195.638C198.555 32.9838 201.381 32.5307 204.116 31.7152C204.116 31.7152 204.208 31.7152 204.39 31.6246C204.846 31.4434 205.302 31.3527 205.757 31.1715C207.945 30.356 211.774 28.7249 213.871 26.822C215.238 25.644 216.515 24.2848 217.609 22.7443L230.645 4.98382C232.104 2.99029 233.927 1.35922 235.933 0H223.261C216.697 0 210.407 3.17152 206.578 8.42718L201.017 16.0388C198.647 19.2104 195.729 21.8382 192.356 23.7411C188.801 25.8252 186.886 26.7314 180.596 27.3657C174.762 28.5437 164.187 28.7249 164.187 28.7249Z" fill="#0061AF"/>
<path d="M22.6088 25.9159H15.0422L12.125 15.4046L8.20491 19.6635L7.20211 25.9159H0.0913086L4.37602 0.362549H11.4868L10.7575 5.16514C10.5752 6.1619 9.84587 10.2396 9.57237 12.1425C9.93703 11.327 10.2105 10.7833 11.031 9.69588C11.6691 8.88035 14.7687 5.25575 15.4069 4.44022L19.0534 0.362549H26.4377L17.7771 10.0583L22.6088 25.9159Z" fill="#0061AF"/>
<path d="M31.6339 20.6603L29.1725 25.9159H22.791L34.7335 0.362549H42.8471L46.8583 25.9159H39.2006L38.4712 20.6603H31.6339ZM38.0154 15.4046L37.0126 7.9742L33.6395 15.4046H38.0154Z" fill="#0061AF"/>
<path d="M56.3395 25.9159H49.0464L53.3311 0.362549H60.6242L56.3395 25.9159Z" fill="#0061AF"/>
<path d="M82.6857 25.9159H75.1191L72.84 16.2202H69.8315L68.1906 25.9159H60.8975L65.1822 0.362549H76.3954C79.8596 0.362549 81.4094 1.08747 82.4122 1.81239C84.4178 3.26223 85.3294 5.5276 85.3294 7.79297C85.3294 10.149 84.3266 12.3237 82.6857 13.7736C81.6829 14.5891 80.6801 14.9515 79.9508 15.2234L82.6857 25.9159ZM70.652 10.8739H73.5693C75.1191 10.8739 75.7572 10.7833 76.5777 10.2396C77.307 9.7865 77.7628 8.88035 77.7628 8.06481C77.7628 5.70883 74.9367 5.70883 74.2986 5.70883H71.5637L70.652 10.8739Z" fill="#0061AF"/>
<path d="M93.261 20.6603L90.8908 25.9159H84.5093L96.4518 0.362549H104.474L108.485 25.9159H100.919L100.19 20.6603H93.261ZM99.7337 15.4046L98.7309 7.9742L95.3578 15.4046H99.7337Z" fill="#0061AF"/>
<path d="M139.025 25.9159H131.823L134.102 12.3237C134.467 10.2396 134.467 10.149 135.379 6.61498C135.47 6.34313 135.652 5.43698 135.652 5.16514C135.47 5.61821 134.649 7.9742 134.376 8.42727C133.92 9.51465 133.829 9.87711 133.282 11.0551L126.627 25.9159H121.977L120.245 11.0551C120.154 10.602 119.972 8.06482 119.972 7.79297C119.881 5.79944 119.881 5.61821 119.79 4.80268C119.243 9.7865 119.06 11.327 118.604 13.9548L116.599 25.9159H110.855L115.14 0.362549H125.442L126.809 11.6894C126.9 12.0519 127.083 13.4111 127.083 13.6829C127.356 12.6862 127.63 12.3237 127.812 11.6894L132.917 0.362549H143.31L139.025 25.9159Z" fill="#0061AF"/>
<path d="M158.079 14.7701L156.255 25.8251H148.598L150.512 14.4077L144.495 0.271729H152.609L155.161 7.06785C155.526 7.88338 155.617 8.06461 155.891 9.06137C156.346 8.42707 157.076 7.24907 157.167 7.06785L161.725 0.271729H168.745L158.079 14.7701Z" fill="#0061AF"/>
<path d="M170.386 20.6603L168.015 25.9159H161.634L173.576 0.362549H181.599L185.61 25.9159H178.043L177.314 20.6603H170.386ZM176.767 15.4046L175.764 7.9742L172.391 15.4046H176.767Z" fill="#0061AF"/>
<path fill-rule="evenodd" clip-rule="evenodd" d="M191.809 56L191.08 51.5599H183.057L180.778 56H175.582L186.978 35.9741H193.541L197.553 56H191.809ZM184.881 48.1165H190.533L189.074 40.1424L184.881 48.1165Z" fill="#2E9BD6"/>
<path fill-rule="evenodd" clip-rule="evenodd" d="M206.76 56H201.199L205.21 35.9741H210.771L206.76 56Z" fill="#2E9BD6"/>
<path fill-rule="evenodd" clip-rule="evenodd" d="M218.338 56H212.959L216.971 35.9741H225.814C229.369 35.9741 231.101 36.4272 232.469 37.3333C234.201 38.5113 234.839 40.3236 234.839 41.7735C234.839 43.4045 233.927 45.0356 232.651 46.0324C231.557 46.8479 230.463 47.1198 229.46 47.301L232.469 56H226.908L224.355 48.0259H219.888L218.338 56ZM221.529 39.5081L220.526 44.5825H224.081C226.087 44.5825 226.816 44.4919 227.819 44.1295C228.731 43.767 229.369 42.8609 229.369 41.8641C229.369 39.5081 226.634 39.5081 225.267 39.5081H221.529Z" fill="#2E9BD6"/>
<path d="M260 0L257.174 3.80582L253.71 8.60841L240.856 26.0065C237.574 30.4466 232.468 32.9838 226.999 32.9838H209.495C209.951 32.8026 210.316 32.6214 210.771 32.5307C213.051 31.6246 214.418 30.7184 215.785 29.6311C217.518 28.1812 218.976 26.5502 220.344 24.7379L233.38 6.97735C236.571 2.53722 241.767 0 247.237 0H260Z" fill="#62BBE5"/>
<path d="M201.746 9.96773C200.379 11.78 199.832 12.958 197.735 12.958L188.163 12.5049C188.345 12.4143 188.527 12.4143 188.71 12.3237C189.621 11.9613 190.259 11.6894 190.806 11.2363C191.536 10.6926 192.174 10.0583 192.812 9.42404L198.555 2.53731C200.014 0.815626 202.111 -0.090523 204.39 9.18997e-05H211.956C207.489 1.903 203.752 7.3399 201.746 9.96773Z" fill="#62BBE5"/>
<path d="M164.187 28.7249L7.65778 28.9061C4.64937 29.178 1.91445 30.6278 0 32.8932C0 32.8932 0 32.9838 0.0911641 32.9838H192.265H195.638C198.555 32.9838 201.381 32.5307 204.116 31.7152C204.116 31.7152 204.208 31.7152 204.39 31.6246C204.846 31.4434 205.302 31.3527 205.757 31.1715C207.945 30.356 211.774 28.7249 213.871 26.822C215.238 25.644 216.515 24.2848 217.609 22.7443L230.645 4.98382C232.104 2.99029 233.927 1.35922 235.933 0H223.261C216.697 0 210.407 3.17152 206.578 8.42718L201.017 16.0388C198.647 19.2104 195.729 21.8382 192.356 23.7411C188.801 25.8252 186.886 26.7314 180.596 27.3657C174.762 28.5437 164.187 28.7249 164.187 28.7249Z" fill="#0061AF"/>
<path d="M22.6088 25.9159H15.0422L12.125 15.4046L8.20491 19.6635L7.20211 25.9159H0.0913086L4.37602 0.362549H11.4868L10.7575 5.16514C10.5752 6.1619 9.84587 10.2396 9.57237 12.1425C9.93703 11.327 10.2105 10.7833 11.031 9.69588C11.6691 8.88035 14.7687 5.25575 15.4069 4.44022L19.0534 0.362549H26.4377L17.7771 10.0583L22.6088 25.9159Z" fill="#0061AF"/>
<path d="M31.6339 20.6603L29.1725 25.9159H22.791L34.7335 0.362549H42.8471L46.8583 25.9159H39.2006L38.4712 20.6603H31.6339ZM38.0154 15.4046L37.0126 7.9742L33.6395 15.4046H38.0154Z" fill="#0061AF"/>
<path d="M56.3395 25.9159H49.0464L53.3311 0.362549H60.6242L56.3395 25.9159Z" fill="#0061AF"/>
<path d="M82.6857 25.9159H75.1191L72.84 16.2202H69.8315L68.1906 25.9159H60.8975L65.1822 0.362549H76.3954C79.8596 0.362549 81.4094 1.08747 82.4122 1.81239C84.4178 3.26223 85.3294 5.5276 85.3294 7.79297C85.3294 10.149 84.3266 12.3237 82.6857 13.7736C81.6829 14.5891 80.6801 14.9515 79.9508 15.2234L82.6857 25.9159ZM70.652 10.8739H73.5693C75.1191 10.8739 75.7572 10.7833 76.5777 10.2396C77.307 9.7865 77.7628 8.88035 77.7628 8.06481C77.7628 5.70883 74.9367 5.70883 74.2986 5.70883H71.5637L70.652 10.8739Z" fill="#0061AF"/>
<path d="M93.261 20.6603L90.8908 25.9159H84.5093L96.4518 0.362549H104.474L108.485 25.9159H100.919L100.19 20.6603H93.261ZM99.7337 15.4046L98.7309 7.9742L95.3578 15.4046H99.7337Z" fill="#0061AF"/>
<path d="M139.025 25.9159H131.823L134.102 12.3237C134.467 10.2396 134.467 10.149 135.379 6.61498C135.47 6.34313 135.652 5.43698 135.652 5.16514C135.47 5.61821 134.649 7.9742 134.376 8.42727C133.92 9.51465 133.829 9.87711 133.282 11.0551L126.627 25.9159H121.977L120.245 11.0551C120.154 10.602 119.972 8.06482 119.972 7.79297C119.881 5.79944 119.881 5.61821 119.79 4.80268C119.243 9.7865 119.06 11.327 118.604 13.9548L116.599 25.9159H110.855L115.14 0.362549H125.442L126.809 11.6894C126.9 12.0519 127.083 13.4111 127.083 13.6829C127.356 12.6862 127.63 12.3237 127.812 11.6894L132.917 0.362549H143.31L139.025 25.9159Z" fill="#0061AF"/>
<path d="M158.079 14.7701L156.255 25.8251H148.598L150.512 14.4077L144.495 0.271729H152.609L155.161 7.06785C155.526 7.88338 155.617 8.06461 155.891 9.06137C156.346 8.42707 157.076 7.24907 157.167 7.06785L161.725 0.271729H168.745L158.079 14.7701Z" fill="#0061AF"/>
<path d="M170.386 20.6603L168.015 25.9159H161.634L173.576 0.362549H181.599L185.61 25.9159H178.043L177.314 20.6603H170.386ZM176.767 15.4046L175.764 7.9742L172.391 15.4046H176.767Z" fill="#0061AF"/>
</g>
<defs>
<clipPath id="clip0_889_2995">
<rect width="260" height="56" fill="white"/>
</clipPath>
</defs>
</svg>
