<svg width="260" height="57" viewBox="0 0 260 57" fill="none" xmlns="http://www.w3.org/2000/svg">
<path fill-rule="evenodd" clip-rule="evenodd" d="M218.338 56.3971H212.959L216.971 36.2314H225.814C229.369 36.2314 231.101 36.6877 232.469 37.6002C234.201 38.7864 234.839 40.6113 234.839 42.0713C234.839 43.7137 233.927 45.3562 232.651 46.3599C231.557 47.1811 230.463 47.4548 229.46 47.6373L232.469 56.3971H226.908L224.355 48.3673H219.888L218.338 56.3971ZM221.529 39.7901L220.526 44.8999H224.081C226.087 44.8999 226.816 44.8087 227.819 44.4437C228.731 44.0787 229.369 43.1662 229.369 42.1625C229.369 39.7901 226.634 39.7901 225.267 39.7901H221.529Z" fill="white"/>
<path d="M260 0.00585938L257.174 3.83824L253.71 8.67434L240.856 26.1938C237.574 30.6649 232.468 33.2198 226.999 33.2198H209.495C209.951 33.0373 210.316 32.8548 210.771 32.7636C213.051 31.8511 214.418 30.9386 215.785 29.8437C217.518 28.3837 218.976 26.7413 220.344 24.9163L233.38 7.03189C236.571 2.56078 241.767 0.00585938 247.237 0.00585938H260Z" fill="white"/>
<path d="M201.746 10.0434C200.379 11.8684 199.832 13.0546 197.735 13.0546L188.163 12.5983C188.345 12.5071 188.527 12.5071 188.71 12.4159C189.621 12.0509 190.259 11.7771 190.806 11.3209C191.536 10.7734 192.174 10.1347 192.812 9.49594L198.555 2.56116C200.014 0.827463 202.111 -0.0850085 204.39 0.00623864H211.956C207.489 1.92243 203.752 7.39726 201.746 10.0434Z" fill="white"/>
<path d="M164.187 28.9312L7.65778 29.1137C4.64937 29.3874 1.91445 30.8474 0 33.1286C0 33.1286 0 33.2198 0.0911641 33.2198H192.265H195.638C198.555 33.2198 201.381 32.7636 204.116 31.9424C204.116 31.9424 204.208 31.9424 204.39 31.8511C204.846 31.6686 205.302 31.5774 205.757 31.3949C207.945 30.5737 211.774 28.9312 213.871 27.015C215.238 25.8288 216.515 24.4601 217.609 22.9089L230.645 5.02445C232.104 3.01701 233.927 1.37457 235.933 0.00585938H223.261C216.697 0.00585938 210.407 3.19951 206.578 8.49184L201.017 16.1566C198.647 19.3503 195.729 21.9964 192.356 23.9126C188.801 26.0113 186.886 26.9238 180.596 27.5625C174.762 28.7487 164.187 28.9312 164.187 28.9312Z" fill="white"/>
<path d="M22.6084 26.1028H15.0417L12.1245 15.5181L8.20442 19.8067L7.20162 26.1028H0.0908203L4.37553 0.371094H11.4863L10.757 5.20719C10.5747 6.21091 9.84538 10.317 9.57189 12.2332C9.93654 11.412 10.21 10.8645 11.0305 9.76955C11.6687 8.94833 14.7682 5.29844 15.4064 4.47722L19.053 0.371094H26.4372L17.7767 10.1345L22.6084 26.1028Z" fill="white"/>
<path d="M31.6339 20.8105L29.1725 26.1028H22.791L34.7335 0.371094H42.8471L46.8583 26.1028H39.2006L38.4712 20.8105H31.6339ZM38.0154 15.5181L37.0126 8.03585L33.6395 15.5181H38.0154Z" fill="white"/>
<path d="M56.3395 26.1028H49.0464L53.3311 0.371094H60.6242L56.3395 26.1028Z" fill="white"/>
<path d="M82.6857 26.1028H75.1191L72.84 16.3393H69.8315L68.1906 26.1028H60.8975L65.1822 0.371094H76.3954C79.8596 0.371094 81.4094 1.10107 82.4122 1.83105C84.4178 3.291 85.3294 5.57218 85.3294 7.85336C85.3294 10.2258 84.3266 12.4157 82.6857 13.8757C81.6829 14.6969 80.6801 15.0619 79.9508 15.3356L82.6857 26.1028ZM70.652 10.9558H73.5693C75.1191 10.9558 75.7572 10.8645 76.5777 10.317C77.307 9.8608 77.7628 8.94833 77.7628 8.1271C77.7628 5.75468 74.9367 5.75468 74.2986 5.75468H71.5637L70.652 10.9558Z" fill="white"/>
<path d="M93.261 20.8105L90.8908 26.1028H84.5093L96.4518 0.371094H104.474L108.485 26.1028H100.919L100.19 20.8105H93.261ZM99.7337 15.5181L98.7309 8.03585L95.3578 15.5181H99.7337Z" fill="white"/>
<path d="M139.025 26.1028H131.823L134.102 12.4157C134.467 10.317 134.467 10.2258 135.379 6.66715C135.47 6.3934 135.652 5.48093 135.652 5.20719C135.47 5.66343 134.649 8.03585 134.376 8.49209C133.92 9.58706 133.829 9.95204 133.282 11.1383L126.627 26.1028H121.977L120.245 11.1383C120.154 10.682 119.972 8.1271 119.972 7.85336C119.881 5.84592 119.881 5.66343 119.79 4.8422C119.243 9.8608 119.06 11.412 118.604 14.0582L116.599 26.1028H110.855L115.14 0.371094H125.442L126.809 11.777C126.9 12.142 127.083 13.5107 127.083 13.7844C127.356 12.7807 127.63 12.4157 127.812 11.777L132.917 0.371094H143.31L139.025 26.1028Z" fill="white"/>
<path d="M158.079 14.8798L156.255 26.012H148.598L150.512 14.5148L144.495 0.280273H152.609L155.161 7.12381C155.526 7.94503 155.617 8.12753 155.891 9.13125C156.346 8.49252 157.076 7.3063 157.167 7.12381L161.725 0.280273H168.745L158.079 14.8798Z" fill="white"/>
<path d="M170.386 20.8105L168.015 26.1028H161.634L173.576 0.371094H181.599L185.61 26.1028H178.043L177.314 20.8105H170.386ZM176.767 15.5181L175.764 8.03585L172.391 15.5181H176.767Z" fill="white"/>
<path fill-rule="evenodd" clip-rule="evenodd" d="M191.809 56.3971L191.08 51.926H183.057L180.778 56.3971H175.582L186.978 36.2314H193.541L197.553 56.3971H191.809ZM184.881 48.4586H190.533L189.074 40.4288L184.881 48.4586Z" fill="white"/>
<path fill-rule="evenodd" clip-rule="evenodd" d="M206.76 56.3971H201.199L205.21 36.2314H210.771L206.76 56.3971Z" fill="white"/>
<path fill-rule="evenodd" clip-rule="evenodd" d="M218.338 56.3971H212.959L216.971 36.2314H225.814C229.369 36.2314 231.101 36.6877 232.469 37.6002C234.201 38.7864 234.839 40.6113 234.839 42.0713C234.839 43.7137 233.927 45.3562 232.651 46.3599C231.557 47.1811 230.463 47.4548 229.46 47.6373L232.469 56.3971H226.908L224.355 48.3673H219.888L218.338 56.3971ZM221.529 39.7901L220.526 44.8999H224.081C226.087 44.8999 226.816 44.8087 227.819 44.4437C228.731 44.0787 229.369 43.1662 229.369 42.1625C229.369 39.7901 226.634 39.7901 225.267 39.7901H221.529Z" fill="white"/>
<path d="M260 0.00585938L257.174 3.83824L253.71 8.67434L240.856 26.1938C237.574 30.6649 232.468 33.2198 226.999 33.2198H209.495C209.951 33.0373 210.316 32.8548 210.771 32.7636C213.051 31.8511 214.418 30.9386 215.785 29.8437C217.518 28.3837 218.976 26.7413 220.344 24.9163L233.38 7.03189C236.571 2.56078 241.767 0.00585938 247.237 0.00585938H260Z" fill="white"/>
<path d="M201.746 10.0434C200.379 11.8684 199.832 13.0546 197.735 13.0546L188.163 12.5983C188.345 12.5071 188.527 12.5071 188.71 12.4159C189.621 12.0509 190.259 11.7771 190.806 11.3209C191.536 10.7734 192.174 10.1347 192.812 9.49594L198.555 2.56116C200.014 0.827463 202.111 -0.0850085 204.39 0.00623864H211.956C207.489 1.92243 203.752 7.39726 201.746 10.0434Z" fill="white"/>
<path d="M164.187 28.9312L7.65778 29.1137C4.64937 29.3874 1.91445 30.8474 0 33.1286C0 33.1286 0 33.2198 0.0911641 33.2198H192.265H195.638C198.555 33.2198 201.381 32.7636 204.116 31.9424C204.116 31.9424 204.208 31.9424 204.39 31.8511C204.846 31.6686 205.302 31.5774 205.757 31.3949C207.945 30.5737 211.774 28.9312 213.871 27.015C215.238 25.8288 216.515 24.4601 217.609 22.9089L230.645 5.02445C232.104 3.01701 233.927 1.37457 235.933 0.00585938H223.261C216.697 0.00585938 210.407 3.19951 206.578 8.49184L201.017 16.1566C198.647 19.3503 195.729 21.9964 192.356 23.9126C188.801 26.0113 186.886 26.9238 180.596 27.5625C174.762 28.7487 164.187 28.9312 164.187 28.9312Z" fill="white"/>
<path d="M22.6084 26.1028H15.0417L12.1245 15.5181L8.20442 19.8067L7.20162 26.1028H0.0908203L4.37553 0.371094H11.4863L10.757 5.20719C10.5747 6.21091 9.84538 10.317 9.57189 12.2332C9.93654 11.412 10.21 10.8645 11.0305 9.76955C11.6687 8.94833 14.7682 5.29844 15.4064 4.47722L19.053 0.371094H26.4372L17.7767 10.1345L22.6084 26.1028Z" fill="white"/>
<path d="M31.6339 20.8105L29.1725 26.1028H22.791L34.7335 0.371094H42.8471L46.8583 26.1028H39.2006L38.4712 20.8105H31.6339ZM38.0154 15.5181L37.0126 8.03585L33.6395 15.5181H38.0154Z" fill="white"/>
<path d="M56.3395 26.1028H49.0464L53.3311 0.371094H60.6242L56.3395 26.1028Z" fill="white"/>
<path d="M82.6857 26.1028H75.1191L72.84 16.3393H69.8315L68.1906 26.1028H60.8975L65.1822 0.371094H76.3954C79.8596 0.371094 81.4094 1.10107 82.4122 1.83105C84.4178 3.291 85.3294 5.57218 85.3294 7.85336C85.3294 10.2258 84.3266 12.4157 82.6857 13.8757C81.6829 14.6969 80.6801 15.0619 79.9508 15.3356L82.6857 26.1028ZM70.652 10.9558H73.5693C75.1191 10.9558 75.7572 10.8645 76.5777 10.317C77.307 9.8608 77.7628 8.94833 77.7628 8.1271C77.7628 5.75468 74.9367 5.75468 74.2986 5.75468H71.5637L70.652 10.9558Z" fill="white"/>
<path d="M93.261 20.8105L90.8908 26.1028H84.5093L96.4518 0.371094H104.474L108.485 26.1028H100.919L100.19 20.8105H93.261ZM99.7337 15.5181L98.7309 8.03585L95.3578 15.5181H99.7337Z" fill="white"/>
<path d="M139.025 26.1028H131.823L134.102 12.4157C134.467 10.317 134.467 10.2258 135.379 6.66715C135.47 6.3934 135.652 5.48093 135.652 5.20719C135.47 5.66343 134.649 8.03585 134.376 8.49209C133.92 9.58706 133.829 9.95204 133.282 11.1383L126.627 26.1028H121.977L120.245 11.1383C120.154 10.682 119.972 8.1271 119.972 7.85336C119.881 5.84592 119.881 5.66343 119.79 4.8422C119.243 9.8608 119.06 11.412 118.604 14.0582L116.599 26.1028H110.855L115.14 0.371094H125.442L126.809 11.777C126.9 12.142 127.083 13.5107 127.083 13.7844C127.356 12.7807 127.63 12.4157 127.812 11.777L132.917 0.371094H143.31L139.025 26.1028Z" fill="white"/>
<path d="M158.079 14.8798L156.255 26.012H148.598L150.512 14.5148L144.495 0.280273H152.609L155.161 7.12381C155.526 7.94503 155.617 8.12753 155.891 9.13125C156.346 8.49252 157.076 7.3063 157.167 7.12381L161.725 0.280273H168.745L158.079 14.8798Z" fill="white"/>
<path d="M170.386 20.8105L168.015 26.1028H161.634L173.576 0.371094H181.599L185.61 26.1028H178.043L177.314 20.8105H170.386ZM176.767 15.5181L175.764 8.03585L172.391 15.5181H176.767Z" fill="white"/>
</svg>
